<svg viewBox="0 0 1436 444" fill="none" xmlns="http://www.w3.org/2000/svg">
<path d="M614.858 137.332V136.86C614.858 129.613 613.677 123.391 611.315 118.192C609.11 112.993 605.725 108.504 601.158 104.723C596.749 100.784 591.238 97.4762 584.624 94.7981C578.167 91.9625 570.766 89.4419 562.42 87.2364C555.334 85.346 549.429 83.6919 544.705 82.2741C540.138 80.8563 536.516 79.3597 533.839 77.7844C531.162 76.209 529.273 74.4761 528.171 72.5857C527.226 70.5378 526.753 68.1748 526.753 65.4967V65.0241C526.753 60.9282 528.485 57.5412 531.95 54.8631C535.572 52.0275 540.926 50.6097 548.012 50.6097C555.098 50.6097 562.184 52.1062 569.27 55.0994C576.357 57.935 583.6 61.8734 591.001 66.9145L609.898 39.5035C601.394 32.7295 592.025 27.5308 581.789 23.9075C571.711 20.2842 560.61 18.4726 548.484 18.4726C539.981 18.4726 532.186 19.6541 525.1 22.0171C518.014 24.3801 511.872 27.7671 506.676 32.1781C501.637 36.5891 497.7 41.8665 494.865 48.0103C492.031 53.9966 490.614 60.7706 490.614 68.3323V68.8049C490.614 76.9967 491.874 83.8495 494.393 89.3632C497.07 94.8769 500.771 99.5241 505.495 103.305C510.219 106.928 515.967 110 522.738 112.521C529.509 115.041 537.068 117.326 545.414 119.374C552.342 121.106 557.933 122.76 562.184 124.336C566.593 125.911 569.979 127.487 572.341 129.062C574.861 130.637 576.514 132.37 577.301 134.261C578.246 135.993 578.719 138.041 578.719 140.404V140.877C578.719 145.761 576.593 149.62 572.341 152.456C568.247 155.134 562.42 156.473 554.862 156.473C545.414 156.473 536.674 154.661 528.643 151.038C520.769 147.415 513.053 142.531 505.495 136.387L484 162.144C493.921 171.124 504.944 177.819 517.069 182.23C529.194 186.483 541.556 188.61 554.153 188.61C563.129 188.61 571.318 187.507 578.719 185.302C586.12 182.939 592.497 179.63 597.851 175.377C603.205 170.966 607.378 165.61 610.37 159.309C613.362 152.85 614.858 145.524 614.858 137.332Z" fill="#2374E1"/>
<path d="M814.842 103.541V103.069C814.842 91.2536 812.637 80.2262 808.228 69.9864C803.976 59.5891 797.914 50.6097 790.04 43.048C782.324 35.3288 773.112 29.2637 762.404 24.8528C751.696 20.2843 739.964 18 727.209 18C714.454 18 702.644 20.2843 691.778 24.8528C681.07 29.2637 671.78 35.4076 663.906 43.2843C656.19 51.0035 650.127 60.0617 645.718 70.459C641.309 80.6988 639.104 91.7262 639.104 103.541V104.014C639.104 115.829 641.23 126.935 645.482 137.332C649.891 147.572 655.954 156.552 663.67 164.271C671.543 171.833 680.834 177.898 691.542 182.466C702.25 186.877 713.982 189.083 726.737 189.083C739.492 189.083 751.224 186.877 761.932 182.466C772.797 177.898 782.088 171.754 789.804 164.035C797.677 156.158 803.819 147.1 808.228 136.86C812.637 126.463 814.842 115.356 814.842 103.541ZM776.813 104.014C776.813 111.103 775.553 117.798 773.033 124.1C770.671 130.243 767.286 135.678 762.876 140.404C758.625 145.13 753.428 148.832 747.287 151.511C741.145 154.189 734.453 155.528 727.209 155.528C719.808 155.528 713.037 154.189 706.896 151.511C700.912 148.675 695.636 144.894 691.07 140.168C686.661 135.442 683.196 129.928 680.677 123.627C678.315 117.326 677.134 110.63 677.134 103.541V103.069C677.134 95.9796 678.315 89.3632 680.677 83.2193C683.196 76.9179 686.582 71.4042 690.833 66.6782C695.243 61.9521 700.439 58.2501 706.423 55.572C712.564 52.8939 719.336 51.5549 726.737 51.5549C733.98 51.5549 740.673 52.9727 746.814 55.8083C752.956 58.4864 758.231 62.1885 762.64 66.9145C767.207 71.6405 770.671 77.1542 773.033 83.4556C775.553 89.757 776.813 96.4522 776.813 103.541V104.014Z" fill="#2374E1"/>
<path d="M992.376 159.545L969.228 136.151C962.772 142.137 956.237 146.863 949.623 150.329C943.167 153.795 935.215 155.528 925.766 155.528C918.68 155.528 912.145 154.189 906.161 151.511C900.335 148.675 895.296 144.894 891.044 140.168C886.95 135.442 883.722 129.928 881.36 123.627C878.997 117.326 877.816 110.63 877.816 103.541V103.069C877.816 95.9796 878.997 89.3632 881.36 83.2193C883.722 76.9179 887.028 71.4042 891.28 66.6782C895.532 61.9521 900.571 58.2501 906.397 55.572C912.381 52.8939 918.838 51.5549 925.766 51.5549C934.112 51.5549 941.592 53.209 948.206 56.5172C954.977 59.8254 961.591 64.3939 968.047 70.2227L991.195 43.5206C987.416 39.7398 983.322 36.274 978.913 33.1233C974.503 29.9726 969.701 27.2945 964.504 25.089C959.308 22.8836 953.481 21.1507 947.025 19.8904C940.726 18.6301 933.719 18 926.002 18C913.247 18 901.595 20.2843 891.044 24.8528C880.493 29.2637 871.439 35.4076 863.88 43.2843C856.322 51.0035 850.417 60.0617 846.165 70.459C841.913 80.6988 839.787 91.7262 839.787 103.541V104.014C839.787 115.829 841.913 126.935 846.165 137.332C850.417 147.73 856.322 156.788 863.88 164.507C871.439 172.069 880.415 178.055 890.808 182.466C901.201 186.877 912.46 189.083 924.585 189.083C932.616 189.083 939.86 188.374 946.316 186.956C952.773 185.696 958.678 183.805 964.032 181.285C969.543 178.607 974.582 175.456 979.149 171.833C983.716 168.209 988.125 164.113 992.376 159.545Z" fill="#2374E1"/>
<path d="M1059.53 186.247V20.8356H1023.15V186.247H1059.53Z" fill="#2374E1"/>
<path d="M1261.94 186.247L1191.08 19.6541H1157.54L1086.67 186.247H1123.76L1138.88 149.148H1208.79L1223.91 186.247H1261.94ZM1195.8 117.01H1151.87L1173.83 63.37L1195.8 117.01Z" fill="#2374E1"/>
<path d="M1406.27 186.247V153.165H1323.83V20.8356H1287.46V186.247H1406.27Z" fill="#2374E1"/>
<path d="M660.682 415.164V249.753H621.472L578.01 319.698L534.548 249.753H495.338V415.164H531.005V307.883L577.065 377.829H578.01L624.543 307.174V415.164H660.682Z" fill="#2374E1"/>
<path d="M868.818 332.459V331.986C868.818 320.171 866.614 309.144 862.205 298.904C857.953 288.507 851.89 279.527 844.017 271.965C836.301 264.246 827.089 258.181 816.381 253.77C805.673 249.202 793.941 246.917 781.186 246.917C768.431 246.917 756.621 249.202 745.755 253.77C735.047 258.181 725.756 264.325 717.883 272.202C710.167 279.921 704.104 288.979 699.695 299.376C695.286 309.616 693.081 320.644 693.081 332.459V332.931C693.081 344.746 695.207 355.853 699.459 366.25C703.868 376.49 709.931 385.469 717.647 393.188C725.52 400.75 734.811 406.815 745.519 411.384C756.227 415.795 767.958 418 780.714 418C793.469 418 805.2 415.795 815.908 411.384C826.774 406.815 836.065 400.671 843.781 392.952C851.654 385.075 857.796 376.017 862.205 365.777C866.614 355.38 868.818 344.274 868.818 332.459ZM830.789 332.931C830.789 340.02 829.53 346.716 827.01 353.017C824.648 359.161 821.262 364.596 816.853 369.322C812.601 374.048 807.405 377.75 801.264 380.428C795.122 383.106 788.43 384.445 781.186 384.445C773.785 384.445 767.014 383.106 760.872 380.428C754.888 377.592 749.613 373.812 745.046 369.086C740.637 364.359 737.173 358.846 734.653 352.544C732.291 346.243 731.11 339.548 731.11 332.459V331.986C731.11 324.897 732.291 318.281 734.653 312.137C737.173 305.835 740.559 300.322 744.81 295.596C749.219 290.87 754.416 287.168 760.4 284.489C766.541 281.811 773.312 280.472 780.714 280.472C787.957 280.472 794.65 281.89 800.791 284.726C806.932 287.404 812.208 291.106 816.617 295.832C821.184 300.558 824.648 306.072 827.01 312.373C829.53 318.674 830.789 325.37 830.789 332.459V332.931Z" fill="#2374E1"/>
<path d="M1052.73 249.753H1013.52L970.295 366.25L927.069 249.753H886.914L953.76 416.346H985.884L1052.73 249.753Z" fill="#2374E1"/>
<path d="M1116.27 415.164V249.753H1079.89V415.164H1116.27Z" fill="#2374E1"/>
<path d="M1283.49 415.164V382.791H1193.73V348.055H1271.68V315.681H1193.73V282.126H1282.31V249.753H1157.59V415.164H1283.49Z" fill="#2374E1"/>
<path d="M1435.35 366.25V365.777C1435.35 358.531 1434.17 352.308 1431.81 347.109C1429.6 341.911 1426.22 337.421 1421.65 333.64C1417.24 329.702 1411.73 326.394 1405.12 323.716C1398.66 320.88 1391.26 318.359 1382.91 316.154C1375.83 314.263 1369.92 312.609 1365.2 311.192C1360.63 309.774 1357.01 308.277 1354.33 306.702C1351.66 305.126 1349.77 303.394 1348.66 301.503C1347.72 299.455 1347.25 297.092 1347.25 294.414V293.942C1347.25 289.846 1348.98 286.459 1352.44 283.781C1356.06 280.945 1361.42 279.527 1368.51 279.527C1375.59 279.527 1382.68 281.024 1389.76 284.017C1396.85 286.852 1404.09 290.791 1411.49 295.832L1430.39 268.421C1421.89 261.647 1412.52 256.448 1402.28 252.825C1392.2 249.202 1381.1 247.39 1368.98 247.39C1360.47 247.39 1352.68 248.572 1345.59 250.935C1338.51 253.298 1332.37 256.685 1327.17 261.096C1322.13 265.507 1318.19 270.784 1315.36 276.928C1312.52 282.914 1311.11 289.688 1311.11 297.25V297.722C1311.11 305.914 1312.37 312.767 1314.89 318.281C1317.56 323.794 1321.26 328.442 1325.99 332.222C1330.71 335.846 1336.46 338.918 1343.23 341.438C1350 343.959 1357.56 346.243 1365.91 348.291C1372.84 350.024 1378.43 351.678 1382.68 353.253C1387.09 354.829 1390.47 356.404 1392.83 357.979C1395.35 359.555 1397.01 361.288 1397.79 363.178C1398.74 364.911 1399.21 366.959 1399.21 369.322V369.794C1399.21 374.678 1397.09 378.538 1392.83 381.373C1388.74 384.051 1382.91 385.39 1375.36 385.39C1365.91 385.39 1357.17 383.579 1349.14 379.955C1341.26 376.332 1333.55 371.449 1325.99 365.305L1304.49 391.062C1314.41 400.041 1325.44 406.736 1337.56 411.147C1349.69 415.401 1362.05 417.527 1374.65 417.527C1383.62 417.527 1391.81 416.425 1399.21 414.219C1406.61 411.856 1412.99 408.548 1418.34 404.295C1423.7 399.884 1427.87 394.527 1430.86 388.226C1433.86 381.767 1435.35 374.442 1435.35 366.25Z" fill="#2374E1"/>
<rect x="72" y="72" width="300" height="300" rx="150" fill="#2374E1"/>
<path d="M284.05 154L257.117 159.346L275.895 183.606L289.396 180.865L284.05 154M236.968 163.32L223.467 165.993L242.314 190.185L255.746 187.513L236.968 163.32M203.387 169.9L189.886 172.709L208.733 196.902L222.165 194.229L203.387 169.9ZM169.737 176.753L163.021 178.055C159.46 178.767 156.327 180.862 154.31 183.882C152.292 186.901 151.556 190.598 152.261 194.16L154.934 207.593L188.515 200.945L169.737 176.753ZM154.934 207.593V276.126C154.934 279.761 156.378 283.247 158.949 285.818C161.519 288.388 165.006 289.832 168.641 289.832H278.293C285.901 289.832 292 283.733 292 276.126V207.593H154.934Z" fill="white"/>
<circle cx="414" cy="222" r="25" transform="rotate(90 414 222)" stroke="#2374E1" stroke-width="10"/>
<line x1="388" y1="222" x2="371" y2="222" stroke="#2374E1" stroke-width="10"/>
<circle cx="61" cy="383" r="35" transform="rotate(-180 61 383)" stroke="#2374E1" stroke-width="10"/>
<circle cx="222" cy="414" r="25" transform="rotate(-180 222 414)" stroke="#2374E1" stroke-width="10"/>
<line x1="222" y1="388" x2="222" y2="371" stroke="#2374E1" stroke-width="10"/>
<line x1="86.4645" y1="357.559" x2="117.464" y2="326.559" stroke="#2374E1" stroke-width="10"/>
<circle cx="383" cy="383" r="35" transform="rotate(90 383 383)" stroke="#2374E1" stroke-width="10"/>
<line x1="357.559" y1="357.536" x2="326.559" y2="326.536" stroke="#2374E1" stroke-width="10"/>
<circle cx="30" cy="222" r="25" transform="rotate(-90 30 222)" stroke="#2374E1" stroke-width="10"/>
<line x1="56" y1="222" x2="73" y2="222" stroke="#2374E1" stroke-width="10"/>
<circle cx="383" cy="61" r="35" stroke="#2374E1" stroke-width="10"/>
<circle cx="222" cy="30" r="25" stroke="#2374E1" stroke-width="10"/>
<line x1="222" y1="56" x2="222" y2="73" stroke="#2374E1" stroke-width="10"/>
<line x1="357.536" y1="86.4411" x2="326.536" y2="117.441" stroke="#2374E1" stroke-width="10"/>
<circle cx="61" cy="61" r="35" transform="rotate(-90 61 61)" stroke="#2374E1" stroke-width="10"/>
<line x1="86.4408" y1="86.4645" x2="117.441" y2="117.464" stroke="#2374E1" stroke-width="10"/>
</svg>
