<svg viewBox="0 0 444 444" fill="none" xmlns="http://www.w3.org/2000/svg">
<rect x="72" y="72" width="300" height="300" rx="150" fill="#2374E1"/>
<path d="M284.05 154L257.117 159.346L275.895 183.606L289.396 180.865L284.05 154M236.968 163.32L223.467 165.993L242.314 190.185L255.746 187.513L236.968 163.32M203.387 169.9L189.886 172.709L208.733 196.902L222.165 194.229L203.387 169.9ZM169.737 176.753L163.021 178.055C159.46 178.767 156.327 180.862 154.31 183.882C152.292 186.901 151.556 190.598 152.261 194.16L154.934 207.593L188.515 200.945L169.737 176.753ZM154.934 207.593V276.126C154.934 279.761 156.378 283.247 158.949 285.818C161.519 288.388 165.006 289.832 168.641 289.832H278.293C285.901 289.832 292 283.733 292 276.126V207.593H154.934Z" fill="white"/>
<circle cx="414" cy="222" r="25" transform="rotate(90 414 222)" stroke="#2374E1" stroke-width="10"/>
<line x1="388" y1="222" x2="371" y2="222" stroke="#2374E1" stroke-width="10"/>
<circle cx="61" cy="383" r="35" transform="rotate(-180 61 383)" stroke="#2374E1" stroke-width="10"/>
<circle cx="222" cy="414" r="25" transform="rotate(-180 222 414)" stroke="#2374E1" stroke-width="10"/>
<line x1="222" y1="388" x2="222" y2="371" stroke="#2374E1" stroke-width="10"/>
<line x1="86.4645" y1="357.559" x2="117.464" y2="326.559" stroke="#2374E1" stroke-width="10"/>
<circle cx="383" cy="383" r="35" transform="rotate(90 383 383)" stroke="#2374E1" stroke-width="10"/>
<line x1="357.559" y1="357.536" x2="326.559" y2="326.536" stroke="#2374E1" stroke-width="10"/>
<circle cx="30" cy="222" r="25" transform="rotate(-90 30 222)" stroke="#2374E1" stroke-width="10"/>
<line x1="56" y1="222" x2="73" y2="222" stroke="#2374E1" stroke-width="10"/>
<circle cx="383" cy="61" r="35" stroke="#2374E1" stroke-width="10"/>
<circle cx="222" cy="30" r="25" stroke="#2374E1" stroke-width="10"/>
<line x1="222" y1="56" x2="222" y2="73" stroke="#2374E1" stroke-width="10"/>
<line x1="357.536" y1="86.4411" x2="326.536" y2="117.441" stroke="#2374E1" stroke-width="10"/>
<circle cx="61" cy="61" r="35" transform="rotate(-90 61 61)" stroke="#2374E1" stroke-width="10"/>
<line x1="86.4411" y1="86.4645" x2="117.441" y2="117.464" stroke="#2374E1" stroke-width="10"/>
</svg>
