<?xml version="1.0" encoding="utf-8"?>
<!-- Generator: Adobe Illustrator 25.2.0, SVG Export Plug-In . SVG Version: 6.00 Build 0)  -->
<svg version="1.1" id="Capa_1" xmlns="http://www.w3.org/2000/svg" xmlns:xlink="http://www.w3.org/1999/xlink" x="0px" y="0px"
	 viewBox="0 0 502.6 436.9" style="enable-background:new 0 0 502.6 436.9;" xml:space="preserve">
<style type="text/css">
	.st0{fill:#2374E1;}
</style>
<g>
	<g>
		<g>
			<circle class="st0" cx="250.4" cy="58.7" r="58.7"/>
			<path class="st0" d="M455.9,220.2l-54.7-11.4c-18.6-3.9-37,4.6-46.8,19.8c-9.4-4.9-19.6-9-30.4-12.5v-32.5
				c0-24.6-20.1-44.7-44.7-44.7h-55.9c-24.7,0-44.7,20.1-44.7,44.7v32.7c-10.7,3.4-20.8,7.6-30.3,12.5c-9.7-15.3-28.2-23.9-46.8-20
				l-54.7,11.4c-24,5-39.6,28.9-34.6,53L26,338.8c5,24.1,28.8,39.6,52.9,34.6l17.3-3.6c8.7,12.8,20.7,24.6,36,34.6
				c32,21,74.2,32.5,119.1,32.5c68.6,0,127.7-27.6,154.9-67.2l17.6,3.7c24,5,47.9-10.6,52.9-34.6l13.8-65.6
				C495.5,249,479.9,225.2,455.9,220.2z M251.3,414.5c-40.5,0-78.5-10.2-106.8-28.9c-9.7-6.3-17.8-13.4-24.2-20.9l13.3-2.8
				c24.1-5,39.7-28.8,34.6-52.9l-12.3-59c7.2-3.9,14.7-7.2,22.8-10.1v10.8c0,24.6,20.1,44.7,44.7,44.7h55.9
				c24.5,0,44.7-20.1,44.7-44.7v-11.3c8.2,2.9,15.9,6.3,23,10.1L334.4,309c-5,24.1,10.6,47.9,34.7,52.9l13.4,2.8
				C357.5,394.3,308.1,414.5,251.3,414.5z"/>
			<circle class="st0" cx="444" cy="135.9" r="58.7"/>
			<path class="st0" d="M70.7,193.3c31.8-6.6,52-37.8,45.5-69.5c-6.7-31.7-37.7-52.1-69.5-45.4C15,85-5.4,116.1,1.3,147.8
				C7.9,179.6,39,199.9,70.7,193.3z"/>
		</g>
	</g>
</g>
</svg>
