<?xml version="1.0" encoding="utf-8"?>
<!-- Generator: Adobe Illustrator 25.2.0, SVG Export Plug-In . SVG Version: 6.00 Build 0)  -->
<svg version="1.1" id="Vrstva_1" xmlns="http://www.w3.org/2000/svg" xmlns:xlink="http://www.w3.org/1999/xlink" x="0px" y="0px"
	 viewBox="0 0 2556.6 1587.4" style="enable-background:new 0 0 2556.6 1587.4;" xml:space="preserve">
<style type="text/css">
	.st0{fill:#F0284A;}
</style>
<g>
	<path class="st0" d="M2516.8,886.5c-25.5-60.2-61.9-114.3-108.4-160.7c-46.4-46.4-100.5-82.9-160.7-108.4
		c-50.3-21.3-103.1-34.1-157.4-38.3c-3.9-38-13.4-75-28.3-110.4c-19.5-46-47.3-87.3-82.8-122.8c-35.5-35.5-76.8-63.3-122.8-82.8
		c-47.6-20.2-98.2-30.4-150.4-30.4c-61.6,0-121.6,14.5-175.8,42.3c-51.5-76.7-119.9-141.3-199.7-188.3
		C1236,31.1,1127.7,1.6,1017.4,1.6C934,1.6,853.1,17.9,777,50.2c-73.5,31.1-139.6,75.6-196.3,132.3
		C524,239.2,479.5,305.2,448.4,378.8c-28.3,66.8-44.3,137.3-47.8,209.9c-106.1,22.5-202.8,78.9-275.1,161.3
		C85.9,795,54.9,846.3,33.5,902.1C11.3,959.9,0,1020.9,0,1083.4c0,68.3,13.4,134.5,39.8,196.9c25.5,60.2,61.9,114.3,108.4,160.7
		s100.5,82.9,160.7,108.4c62.4,26.4,128.6,39.8,196.9,39.8h1545.2c68.3,0,134.5-13.4,196.9-39.8c60.2-25.5,114.3-61.9,160.7-108.4
		c46.4-46.4,82.9-100.5,108.4-160.7c26.4-62.4,39.8-128.6,39.8-196.9S2543.2,948.9,2516.8,886.5z M2050.9,1506.1H505.7
		c-233.1,0-422.7-189.6-422.7-422.8c0-209.9,156.5-389.9,364.1-418.7c20.6-2.9,35.9-20.6,35.8-41.4l0-1.1c0-1,0-2,0-3
		c0-294.8,239.8-534.6,534.6-534.6c190.3,0,367.7,102.5,463.1,267.4c5.7,9.9,15.3,17,26.4,19.6c11.1,2.6,22.8,0.5,32.4-5.8
		c49.5-32.7,107.2-50,166.8-50c167.2,0,303.3,136.1,303.3,303.3c0,22.9,18.6,41.5,41.5,41.5c233.1,0,422.7,189.6,422.7,422.8
		S2284,1506.1,2050.9,1506.1z"/>
	<path class="st0" d="M1507.4,1105.1c-30.4-30.4-65.8-54.3-105.3-71c-40.9-17.3-84.2-26-128.9-26c-44.7,0-88.1,8.8-128.9,26
		c-39.4,16.7-74.9,40.6-105.3,71c-30.4,30.4-54.3,65.8-71,105.3c-17.3,40.9-26,84.2-26,128.9c0,22.9,18.6,41.5,41.5,41.5
		c22.9,0,41.5-18.6,41.5-41.5c0-136.9,111.4-248.2,248.2-248.2s248.2,111.4,248.2,248.2c0,22.9,18.6,41.5,41.5,41.5
		c22.9,0,41.5-18.6,41.5-41.5c0-44.7-8.8-88.1-26-128.9C1561.7,1171,1537.8,1135.5,1507.4,1105.1z"/>
	<path class="st0" d="M1095.8,862.7c8.1,8.1,18.7,12.1,29.3,12.1s21.2-4,29.3-12.1c16.2-16.2,16.2-42.5,0-58.7l-80.9-80.9l80.9-80.9
		c16.2-16.2,16.2-42.5,0-58.7c-16.2-16.2-42.5-16.2-58.7,0l-80.9,80.9L934,583.6c-16.2-16.2-42.5-16.2-58.7,0
		c-16.2,16.2-16.2,42.5,0,58.7l80.9,80.9l-80.9,80.9c-16.2,16.2-16.2,42.5,0,58.7c8.1,8.1,18.7,12.1,29.3,12.1
		c10.6,0,21.2-4,29.3-12.1l80.9-80.9L1095.8,862.7z"/>
	<path class="st0" d="M1681.2,583.6c-16.2-16.2-42.5-16.2-58.7,0l-80.9,80.9l-80.9-80.9c-16.2-16.2-42.5-16.2-58.7,0
		c-16.2,16.2-16.2,42.5,0,58.7l80.9,80.9l-80.9,80.9c-16.2,16.2-16.2,42.5,0,58.7c8.1,8.1,18.7,12.1,29.3,12.1s21.2-4,29.3-12.1
		l80.9-80.9l80.9,80.9c8.1,8.1,18.7,12.1,29.3,12.1c10.6,0,21.2-4,29.3-12.1c16.2-16.2,16.2-42.5,0-58.7l-80.9-80.9l80.9-80.9
		C1697.4,626.1,1697.4,599.8,1681.2,583.6z"/>
</g>
</svg>
