<?xml version="1.0" encoding="utf-8"?>
<!-- Generator: Adobe Illustrator 25.2.0, SVG Export Plug-In . SVG Version: 6.00 Build 0)  -->
<svg version="1.1" id="Layer_1" xmlns="http://www.w3.org/2000/svg" xmlns:xlink="http://www.w3.org/1999/xlink" x="0px" y="0px"
	 viewBox="0 0 387.8 342" style="enable-background:new 0 0 387.8 342;" xml:space="preserve">
<style type="text/css">
	.st0{fill:#3A3C3D;}
	.st1{fill:#263238;}
	.st2{fill:#2374E1;}
	.st3{opacity:0.3;fill:#2374E1;enable-background:new    ;}
	.st4{fill:#E4E6EB;}
	.st5{fill:#FFFFFF;}
	.st6{opacity:0.3;fill:#FFFFFF;enable-background:new    ;}
	.st7{opacity:0.2;enable-background:new    ;}
</style>
<g id="freepik--Shadow--inject-3">
	<ellipse id="freepik--path--inject-3" class="st0" cx="193.9" cy="330.7" rx="193.9" ry="11.3"/>
</g>
<g id="freepik--oops--inject-3">
	<path class="st0" d="M30.6,35.1c-1-4.4-0.6-8.1,1.3-11.1s5-5,9.4-6s8.2-0.6,11.2,1.3s5,5,6,9.3c0.7,2.7,0.8,5.4,0.2,8.1
		c-0.6,2.2-1.8,4.2-3.5,5.8c-2,1.7-4.5,2.9-7.1,3.4c-2.6,0.7-5.3,0.8-7.9,0.3c-2.3-0.6-4.3-1.8-5.9-3.5
		C32.4,40.4,31.1,37.9,30.6,35.1z M38.9,33.2c0.6,2.7,1.6,4.6,2.8,5.5c2.7,1.8,6.4,1.1,8.2-1.6c0-0.1,0.1-0.1,0.1-0.2
		c0.7-1.4,0.7-3.6,0.1-6.6c-0.6-2.5-1.5-4.3-2.8-5.2c-1.3-0.9-3-1.2-4.6-0.8c-1.6,0.3-2.9,1.3-3.7,2.7
		C38.4,28.4,38.3,30.4,38.9,33.2z"/>
	<path class="st0" d="M62.5,31.8c-0.7-2.8-0.2-5.7,1.3-8.1c1.8-2.5,4.5-4.2,7.5-4.8c3.9-0.9,7.1-0.4,9.6,1.4
		c4.4,3.4,5.5,9.5,2.6,14.3c-1.6,2.4-4.1,4-7.6,4.8c-2.7,0.8-5.6,0.5-8.2-0.7C65.1,37.4,63.1,34.8,62.5,31.8z M70,30
		c0.2,1.4,0.9,2.7,1.9,3.6c1.6,1.2,3.8,0.9,5-0.7c0.1-0.2,0.2-0.3,0.3-0.5c0.5-1.3,0.6-2.8,0.1-4.2c-0.2-1.4-0.9-2.6-1.9-3.5
		c-0.8-0.7-1.9-0.9-2.9-0.7c-1.1,0.2-1.9,0.9-2.4,1.9C69.6,27.3,69.6,28.7,70,30z"/>
	<path class="st0" d="M92.5,43l-6.1-27l7-1.6l0.7,2.9c0.5-1.2,1.2-2.2,2.1-3.1c1-0.8,2.2-1.4,3.4-1.7c2.4-0.6,4.9,0,6.7,1.6
		c2,1.8,3.3,4.3,3.8,6.9c0.7,3.2,0.5,5.9-0.6,8c-1.1,2-3.1,3.5-5.3,3.9c-1.1,0.3-2.2,0.3-3.3,0.1c-1-0.2-2.1-0.6-2.9-1.2l2.1,9.3
		L92.5,43z M96.1,24.1c0.2,1.2,0.8,2.4,1.8,3.2c0.8,0.6,1.8,0.8,2.7,0.6c0.9-0.2,1.6-0.8,2-1.6c0.4-1.3,0.4-2.6,0-3.9
		c-0.2-1.3-0.8-2.4-1.7-3.3c-0.7-0.6-1.6-0.8-2.5-0.6c-0.9,0.2-1.7,0.8-2.1,1.7C95.7,21.5,95.7,22.9,96.1,24.1z"/>
	<path class="st0" d="M113.3,24.7l7.3-2.4c0.4,0.7,1,1.3,1.7,1.6c1.6,0.5,3.3,0,4.5-1.1c0.3-0.4,0.5-0.9,0.4-1.3
		c-0.1-0.6-0.6-1-1.1-1.1c-1.1-0.1-2.3-0.1-3.4,0c-1.9,0.2-3.8,0.2-5.7,0c-1.1-0.2-2.2-0.6-3-1.4c-1.9-1.6-2.4-4.3-1.4-6.5
		c0.6-1.2,1.5-2.1,2.6-2.8c1.6-0.9,3.3-1.5,5.1-1.9c1.7-0.5,3.5-0.7,5.3-0.6c1.1,0.1,2.2,0.4,3.2,1c1,0.7,1.9,1.6,2.5,2.6l-7,2.3
		c-0.3-0.5-0.7-0.9-1.2-1.2c-0.7-0.3-1.5-0.3-2.3-0.1c-0.7,0.1-1.3,0.4-1.8,0.9c-0.3,0.3-0.4,0.8-0.3,1.2c0.1,0.5,0.5,0.8,1,0.9
		c1.1,0.1,2.2,0.1,3.4-0.1c1.9-0.3,3.9-0.3,5.8-0.1c1.2,0.2,2.4,0.7,3.3,1.5c0.8,0.8,1.4,1.8,1.7,2.8c0.3,1.2,0.2,2.4-0.3,3.5
		c-0.5,1.3-1.4,2.5-2.6,3.3c-1.8,1.1-3.7,1.9-5.8,2.3c-3.6,0.8-6.2,0.9-8,0.2C115.4,27.8,114.1,26.4,113.3,24.7z"/>
	<path class="st0" d="M137.7,0h8.2v6.3L144.4,19h-5.1l-1.6-12.7L137.7,0z M138.1,20.9h7.7v6.8h-7.7V20.9z"/>
</g>
<g id="freepik--error-404--inject-3">
	<path class="st1" d="M72.6,86h-0.2c-4.5-1.8-7.2-3.4-8.6-5.5c-1.1,0.2-2.2,0.1-3.2-0.4c-1.2-0.6-2.1-1.5-2.8-2.6
		c-0.7,0.5-1.6,0.7-2.4,0.4c-1.2-0.5-2.3-1.3-3-2.4c-0.4,0.3-1,0.5-1.6,0.4c-3-0.2-7-6.2-7.3-12.5c0-0.3,0.2-0.5,0.5-0.5
		c0.3,0,0.5,0.2,0.5,0.5c0,0,0,0,0,0c0.3,6,4.1,11.3,6.4,11.5c0.3,0,0.7-0.1,0.9-0.3c-1.6-2.9-1.9-6.3-1-9.4c0.9-3,1.6-4.2,2.5-4
		c1.7,0.4,1.5,7,0.6,11.3c-0.1,0.8-0.4,1.5-0.8,2.2c0.6,1,1.5,1.8,2.5,2.2c0.6,0.2,1.2,0.1,1.7-0.4c-0.8-1.9-1-4.6,0.1-7.9
		c1.4-4.4,2-4.6,2.3-4.6c0.2,0,0.5,0,0.6,0.2c0.9,1.1-0.2,7.9-1.3,11.3c-0.1,0.4-0.3,0.8-0.6,1.2c0.5,1.1,1.4,2,2.5,2.5
		c0.7,0.3,1.5,0.5,2.3,0.4c-0.1-0.2-0.2-0.4-0.2-0.6c-0.8-2.1-0.4-4.6,1.2-7.6c1.1-1.9,1.9-2.9,2.7-2.9l0,0c0.4,0,0.8,0.3,1,0.7
		c0.9,1.6,0.2,6.9-1.5,9.6c-0.4,0.6-1,1.1-1.6,1.4c1.3,1.8,3.9,3.3,8,4.9c0.3,0.1,0.4,0.4,0.3,0.6c0,0,0,0,0,0
		C73,85.9,72.8,86,72.6,86z M66.9,69.5c0,0-0.6,0-1.8,2.4c-1.4,2.7-1.8,4.9-1.1,6.8c0.1,0.2,0.2,0.5,0.3,0.7c0.5-0.2,1-0.6,1.3-1.1
		c1.4-2.1,2.1-6.5,1.6-8.3C67,69.6,66.9,69.5,66.9,69.5z M59.7,65.3c-0.5,1.1-1,2.3-1.3,3.5c-0.8,2.1-0.9,4.4-0.4,6.6l0.1-0.3
		C59.1,72,59.7,68.7,59.7,65.3L59.7,65.3z M53.1,62.2c-0.2,0.1-0.7,0.8-1.3,3.2c-0.8,2.7-0.6,5.7,0.7,8.2c0.2-0.4,0.4-0.9,0.4-1.4
		C54,67.3,53.7,62.9,53.1,62.2L53.1,62.2z"/>
	<path class="st1" d="M110.6,138.4c-1.6,0-3.2-0.4-4.6-1.2c-0.2-0.1-0.3-0.4-0.2-0.7c0.1-0.2,0.4-0.3,0.7-0.2c0,0,0,0,0,0
		c3.6,2.1,8.2,0.6,9.1-0.9c0.1-0.2,0.2-0.4,0.1-0.7c-1.8,0.1-3.6-0.4-5.1-1.5c-2.6-1.6-2.8-2.1-2.7-2.5c0-0.2,0.1-0.4,0.3-0.5
		c1-0.5,5.5,1.6,7.4,2.8c0.2,0.1,0.4,0.3,0.6,0.5c0.7-0.2,1.4-0.6,1.9-1.1c0.3-0.3,0.5-0.7,0.6-1.1h-0.2c-1.6,0.2-3.2-0.5-4.9-2.1
		c-1.2-1.1-1.6-1.8-1.5-2.4c0.1-0.3,0.4-0.6,0.7-0.6c1.4-0.4,4.8,1.1,6.2,2.6c0.3,0.3,0.5,0.7,0.6,1.2c1.3-0.6,2.7-2,4.3-4.3
		c0.2-0.2,0.5-0.3,0.7-0.1c0,0,0,0,0,0c0.2,0.2,0.3,0.5,0.1,0.7c-1.9,2.6-3.5,4.1-5.1,4.7c-0.1,0.7-0.4,1.4-0.9,2
		c-0.6,0.7-1.3,1.2-2.2,1.4c0.1,0.5,0,1-0.3,1.4C115.7,137.4,113.2,138.4,110.6,138.4z M109.7,131.5c0.3,0.2,0.8,0.6,1.5,1
		c1.1,0.7,2.3,1.2,3.6,1.3C113.2,132.8,111.5,132.1,109.7,131.5z M113.2,127.2c0.3,0.5,0.7,1,1.2,1.4c1.5,1.4,2.8,2,4.1,1.8h0.3
		c-0.1-0.3-0.2-0.6-0.4-0.8C117,128.1,113.9,127.1,113.2,127.2z"/>
	<path class="st2" d="M123.8,137.1l-15.6,2.8L94.1,62.7L64,68.1l-49,87l5.3,28.7l62.8-11.4l4.3,23.5l30.1-5.5l-4.3-23.5l15.6-2.8
		L123.8,137.1z M45,151.4l26-45.6l7.2,39.5L45,151.4z"/>
	<path class="st2" d="M249.3,57.4c-0.5-4.9-1.5-9.6-3.2-14.2c-1.7-4.4-4.1-8.5-7-12.2c-3.5-4.3-7.8-7.8-12.7-10.4
		c-5.3-2.9-12.4-5-21.2-6.1c-18.3-2.4-32.6,0.9-42.8,9.7s-17,25.9-20.2,51c-1.3,9.4-1.6,18.9-1,28.3c0.7,8.7,2.3,15.6,4.8,20.9
		c3.2,7.1,8.3,13.3,14.6,17.8c6.3,4.4,15,7.4,26,8.8c19.6,2.6,34.1-1.2,43.6-11.3c9.5-10.1,15.7-27.1,18.8-51.1
		C250.4,78.4,250.5,67.8,249.3,57.4z"/>
	<path class="st1" d="M195.7,140.9c-2.4-0.1-5-0.3-7.6-0.6c-9.2-1.2-16.2-3.5-21.1-6.9c-4.8-3.4-8.6-8-11-13.4l-0.1-0.1
		c-1.9-4-3.2-9.8-3.7-17c-0.6-8.7-0.3-17.5,0.9-26.1c3.6-27.7,10.9-39.3,16.5-44.1c6.5-5.6,15.2-8.2,26.7-7.8
		c2.4,0.1,4.9,0.3,7.4,0.6c7.4,1,13.2,2.6,17.4,4.9c3.6,1.8,6.7,4.4,9.3,7.5c2.2,2.8,4,5.9,5.4,9.3c1.3,3.7,2.2,7.6,2.6,11.6
		c1.1,9.5,1,19.2-0.3,28.7c-2.8,21.5-8.1,36.7-15.9,45C216.4,138.5,207.7,141.4,195.7,140.9L195.7,140.9z"/>
	<path class="st2" d="M215.2,57.7l0.1-3.8l-2.3-0.8c-0.1-1.3-0.3-2.6-0.6-3.8l2-1.5l-1.3-3.6l-2.4,0.2c-0.6-1.1-1.2-2.2-2-3.3
		l1.3-2.1l-2.6-2.8l-2.2,1.1c-1-0.8-2-1.6-3.1-2.3l0.4-2.4l-3.5-1.6l-1.6,1.9c-1.2-0.4-2.5-0.7-3.8-0.9l-0.6-2.4l-3.8-0.1l-0.8,2.3
		c-1.3,0.1-2.6,0.3-3.8,0.6l-1.5-2l-3.6,1.3l0.2,2.4c-1.1,0.6-2.2,1.2-3.3,2l-2.1-1.3l-2.8,2.6l1.1,2.2c-0.8,1-1.6,2-2.2,3.1
		l-2.4-0.4l-1.6,3.5l1.9,1.6c-0.4,1.2-0.7,2.5-0.9,3.8l-2.4,0.6l-0.1,3.8l2.3,0.8c0.1,1.3,0.3,2.6,0.6,3.8l-2,1.4l1.3,3.6l2.4-0.2
		c0.6,1.1,1.2,2.2,2,3.3l-1.3,2.1l2.6,2.8l2.2-1.1c1,0.8,2,1.6,3.1,2.2L178,77l3.5,1.6l1.6-1.9c1.2,0.4,2.5,0.7,3.8,0.9l0.6,2.4
		l3.8,0.1l0.8-2.3c1.3-0.1,2.6-0.3,3.8-0.6l1.4,2l3.6-1.3l-0.2-2.4c1.1-0.6,2.2-1.3,3.3-2l2.1,1.3l2.8-2.6l-1.1-2.2
		c0.8-1,1.6-2,2.2-3.1l2.4,0.4l1.6-3.5l-1.9-1.6c0.4-1.2,0.7-2.5,0.9-3.8L215.2,57.7z M189.6,70c-8.3-0.3-14.7-7.3-14.4-15.5
		s7.3-14.7,15.5-14.4c8.3,0.3,14.7,7.2,14.4,15.5C204.9,63.8,198,70.3,189.6,70C189.7,70,189.7,70,189.6,70L189.6,70z"/>
	<path class="st3" d="M231,127.3l0.3-2.6l-1.5-0.6c0-0.9-0.1-1.7-0.2-2.6l1.4-0.9l-0.7-2.5h-1.7c-0.3-0.8-0.7-1.6-1.2-2.3l0.9-1.4
		l-1.6-2l-1.5,0.6c-0.6-0.6-1.3-1.2-2-1.7l0.4-1.6l-2.2-1.2l-1.2,1.2c-0.8-0.3-1.6-0.6-2.5-0.8l-0.3-1.6l-2.5-0.3l-0.6,1.5
		c-0.9,0-1.7,0.1-2.6,0.2l-0.9-1.4l-2.5,0.7v1.7c-0.8,0.3-1.6,0.7-2.3,1.2l-1.4-1l-2,1.6l0.6,1.5c-0.6,0.6-1.2,1.3-1.7,2l-1.6-0.4
		l-1.2,2.2l1.2,1.2c-0.3,0.8-0.6,1.6-0.8,2.5l-1.6,0.3l-0.3,2.6l1.5,0.6c0,0.9,0.1,1.7,0.2,2.6l-1.4,0.9l0.7,2.5h1.7
		c0.3,0.8,0.7,1.6,1.2,2.3l-1,1.4l1.6,2l1.5-0.6c0.6,0.6,1.3,1.2,2,1.7l-0.4,1.6l2.2,1.2l1.2-1.2c0.8,0.3,1.6,0.6,2.5,0.8l0.3,1.6
		l2.5,0.3l0.6-1.5c0.9,0,1.8-0.1,2.6-0.2l0.9,1.4l2.5-0.7v-1.7c0.8-0.3,1.6-0.7,2.3-1.2l1.3,1l2-1.6l-0.6-1.5c0.6-0.6,1.2-1.3,1.7-2
		l1.6,0.4l1.2-2.2l-1.2-1.2c0.3-0.8,0.6-1.6,0.8-2.5L231,127.3z M218.1,126.3c-1.2,2.2-3.9,3-6.1,1.8c-2.2-1.2-3-3.9-1.8-6.1
		c1.2-2.2,3.9-3,6.1-1.8c0,0,0,0,0,0C218.5,121.4,219.3,124.1,218.1,126.3z"/>
	<path class="st4" d="M245.2,84.1l-3-2.1l0,0c-0.3-1.1-0.7-2.1-1.2-3.1l0.8-3l-4.3-4.6l-3,0.6c-1-0.6-2-1-3-1.4l0,0l-1.9-3.1
		l-6.3-0.2l-2.1,3l0,0c-1.1,0.3-2.1,0.7-3.1,1.2l-3-0.8l-4.6,4.3l0.6,3l0,0c-0.6,0.9-1,2-1.4,3l-3.1,1.9l-0.2,6.3l3,2.1
		c0.3,1.1,0.7,2.1,1.2,3.1l0,0l-0.8,3l4.3,4.6l3-0.6c1,0.6,2,1,3,1.4l0,0l1.8,3.1l6.3,0.2l2-3c1.1-0.3,2.1-0.7,3.1-1.2l0,0l3,0.8
		l4.6-4.3l-0.5-3c0.6-1,1-2,1.4-3l0,0l3.1-1.9L245.2,84.1z M225.4,93.7c-3.9-0.1-7-3.4-6.9-7.4c0.1-3.9,3.4-7,7.4-6.9
		c3.9,0.1,7,3.4,6.9,7.4c0,0,0,0,0,0C232.7,90.8,229.4,93.8,225.4,93.7L225.4,93.7z"/>
	<path class="st2" d="M266.9,33.6l0.5-1.2l0,0c0.4-0.2,0.7-0.4,1-0.7h1.2l1.4-2l-0.4-1.1c0.2-0.4,0.3-0.7,0.4-1.1l0,0l1-0.9
		l-0.4-2.3l-1.3-0.5l0,0c-0.2-0.4-0.4-0.7-0.7-1v-1.2l-2-1.4l-1.1,0.4l0,0c-0.4-0.1-0.8-0.2-1.2-0.3l-0.9-1l-2.3,0.4l-0.5,1.3
		c-0.4,0.2-0.7,0.4-1,0.7l0,0h-1.2l-1.4,2l0.4,1.1c-0.1,0.4-0.2,0.8-0.3,1.2l0,0l-1,0.9l0.4,2.3l1.3,0.5c0.2,0.4,0.4,0.7,0.7,1l0,0
		v1.2l2,1.4l1.1-0.4c0.4,0.1,0.8,0.2,1.2,0.3l0,0l0.9,1L266.9,33.6z M261.9,27.1c-0.3-1.5,0.7-2.9,2.2-3.1c1.5-0.3,2.9,0.7,3.1,2.2
		c0.3,1.5-0.7,2.9-2.2,3.1c0,0,0,0,0,0C263.5,29.5,262.2,28.5,261.9,27.1z"/>
	<path class="st2" d="M239.5,26.9l-0.8-0.7c1.7-2,3.7-3.7,6-5l0.5,0.9C243,23.3,241.1,25,239.5,26.9z"/>
	<path class="st2" d="M247.5,21.2l-0.4-0.9c3.7-1.6,7.7-2.3,11.7-1.9l-0.1,1C254.9,19.1,251,19.7,247.5,21.2z"/>
	<path class="st2" d="M245.6,28.2l-0.8-0.6c2.4-3.3,5.9-5.5,9.9-6.4l0.2,1C251.1,23,247.9,25.1,245.6,28.2z"/>
	<path class="st5" d="M179.2,124.4c-0.1,0-0.3-0.1-0.4-0.2l-2.1-2.2c-1.1-0.1-2.1-0.3-3.1-0.6l-3.3,1.4c-0.1,0.1-0.3,0.1-0.5,0
		l-5.5-3.6c-0.1-0.1-0.2-0.3-0.2-0.4v-3.6c-0.7-0.8-1.3-1.7-1.8-2.7l-2.8-1.1c-0.2-0.1-0.3-0.2-0.3-0.4l-1.3-6.4
		c0-0.2,0-0.3,0.1-0.5l2.2-2.1c0.1-1.1,0.3-2.1,0.6-3.1l-1.4-3.3c-0.1-0.1-0.1-0.3,0-0.5l3.6-5.5c0.1-0.1,0.3-0.2,0.4-0.2l3.6,0.1
		c0.8-0.7,1.7-1.3,2.7-1.8l1.1-2.8c0.1-0.2,0.2-0.3,0.4-0.3l6.4-1.3c0.2,0,0.3,0,0.5,0.1l2.1,2.2c1.1,0.1,2.1,0.3,3.2,0.6l3.3-1.4
		c0.1-0.1,0.3-0.1,0.5,0l5.5,3.6c0.1,0.1,0.2,0.3,0.2,0.4l-0.1,3.6c0.7,0.8,1.3,1.7,1.8,2.7l2.8,1.1c0.2,0.1,0.3,0.2,0.3,0.4
		l1.3,6.4c0,0.2,0,0.3-0.1,0.5l-2.2,2.1c-0.1,1.1-0.3,2.1-0.6,3.1l1.4,3.3c0.1,0.1,0.1,0.3,0,0.5l-3.6,5.4c-0.1,0.1-0.3,0.2-0.4,0.2
		l-3.6-0.1c-0.8,0.7-1.7,1.3-2.7,1.8l-1.1,2.8c-0.1,0.2-0.2,0.3-0.4,0.3l-6.4,1.4H179.2z M173.6,120.4c0,0,0.1,0,0.1,0
		c1.1,0.3,2.2,0.5,3.3,0.6c0.1,0,0.2,0.1,0.3,0.1l2,2.1l5.9-1.2l1.1-2.7c0-0.1,0.1-0.2,0.2-0.3c1-0.5,1.9-1.1,2.8-1.9
		c0.1-0.1,0.2-0.1,0.3-0.1l3.5,0.1l3.3-5l-1.4-3.2c0-0.1,0-0.2,0-0.3c0.3-1.1,0.5-2.2,0.6-3.3c0-0.1,0.1-0.2,0.1-0.3l2.1-2l-1.2-5.9
		l-2.7-1.1c-0.1,0-0.2-0.1-0.3-0.2c-0.5-1-1.1-1.9-1.9-2.8c-0.1-0.1-0.1-0.2-0.1-0.3v-3.5l-5-3.3l-3.2,1.4c-0.1,0-0.2,0-0.4,0
		c-1.1-0.3-2.2-0.5-3.3-0.6c-0.1,0-0.2-0.1-0.3-0.1l-2-2.1l-5.9,1.2l-1.1,2.8c0,0.1-0.1,0.2-0.2,0.3c-1,0.5-1.9,1.1-2.8,1.9
		c-0.1,0.1-0.2,0.1-0.3,0.1l-3.5-0.1l-3.3,5l1.4,3.2c0.1,0.1,0.1,0.3,0,0.4c-0.3,1.1-0.5,2.1-0.6,3.2c0,0.1-0.1,0.2-0.1,0.3l-2.1,2
		l1.2,5.9l2.7,1.1c0.1,0.1,0.2,0.1,0.3,0.3c0.5,1,1.1,1.9,1.8,2.8c0.1,0.1,0.1,0.2,0.1,0.3v3.5l5,3.3l3.2-1.4
		C173.5,120.5,173.5,120.4,173.6,120.4z M178.5,117.2c-7.4,0-13.3-6-13.3-13.3c0-2.6,0.8-5.2,2.2-7.3l0,0c4.1-6.1,12.3-7.8,18.5-3.8
		s7.8,12.3,3.8,18.5C187.2,115,183,117.2,178.5,117.2L178.5,117.2z M168.3,97.1c-3.8,5.7-2.2,13.3,3.5,17.1
		c5.7,3.8,13.3,2.2,17.1-3.5c3.8-5.7,2.2-13.3-3.5-17.1C179.7,89.8,172.1,91.3,168.3,97.1C168.3,97,168.3,97,168.3,97.1z"/>
	<path class="st2" d="M369.7,146.1L354,144l10.4-77.8l-30.3-4.1l-73.5,67.6l-3.9,28.9l63.3,8.5l-3.2,23.7l30.3,4.1l3.2-23.7
		l15.7,2.1L369.7,146.1z M290.3,135.4l38.8-35.3l-5.3,39.8L290.3,135.4z"/>
	<path class="st1" d="M338,194.2h-0.1c-0.3-0.1-0.4-0.3-0.4-0.6l23.4-127.9c0.1-0.3,0.3-0.4,0.6-0.4c0.3,0.1,0.4,0.3,0.4,0.6
		l-23.3,127.9C338.5,194,338.3,194.2,338,194.2z"/>
	<path class="st1" d="M358.7,67.8c0,0.5-0.4,0.8-0.8,0.8s-0.8-0.4-0.8-0.9c0-0.5,0.4-0.8,0.9-0.8S358.7,67.3,358.7,67.8z"/>
	<path class="st1" d="M355.4,85.1c0,0.5-0.4,0.8-0.8,0.8s-0.8-0.4-0.8-0.8c0-0.5,0.4-0.8,0.8-0.8C355.1,84.3,355.4,84.6,355.4,85.1
		C355.4,85.1,355.4,85.1,355.4,85.1z"/>
	<path class="st1" d="M352.1,102.4c0,0.5-0.4,0.8-0.8,0.8c0,0,0,0,0,0c-0.4,0-0.8-0.4-0.8-0.8c0,0,0,0,0,0c0-0.5,0.4-0.8,0.8-0.8
		c0,0,0,0,0,0C351.7,101.6,352.1,102,352.1,102.4z"/>
	<path class="st1" d="M345.5,120.4c0,0.5-0.5,0.8-0.9,0.7c-0.4,0-0.7-0.3-0.7-0.7c0-0.5,0.3-0.9,0.7-0.9c0.5,0,0.9,0.3,0.9,0.7
		C345.5,120.3,345.5,120.4,345.5,120.4z"/>
	<path class="st1" d="M345.4,137c0,0.4-0.4,0.8-0.8,0.8c0,0,0,0,0,0c-0.5,0-0.8-0.4-0.8-0.8c0-0.5,0.4-0.8,0.8-0.8
		C345.1,136.2,345.4,136.5,345.4,137z"/>
	<path class="st1" d="M342.1,154.3c0,0.5-0.4,0.8-0.8,0.8c-0.5,0-0.8-0.4-0.8-0.8c0-0.5,0.4-0.8,0.8-0.8c0,0,0,0,0,0
		C341.7,153.5,342.1,153.9,342.1,154.3z"/>
	<path class="st1" d="M338.7,171.6c0,0.5-0.4,0.8-0.8,0.8c-0.5,0-0.8-0.4-0.8-0.8c0,0,0,0,0,0c0-0.5,0.4-0.8,0.8-0.8
		S338.7,171.1,338.7,171.6L338.7,171.6z"/>
	<path class="st1" d="M335.4,188.9c0,0.5-0.4,0.8-0.8,0.8c-0.5,0-0.8-0.4-0.8-0.8c0-0.5,0.4-0.8,0.8-0.8
		C335,188.1,335.4,188.4,335.4,188.9C335.4,188.9,335.4,188.9,335.4,188.9z"/>
	<path class="st1" d="M344.7,120.9c-0.2,0-0.4-0.2-0.5-0.4c-0.1-0.3,0.1-0.5,0.4-0.6c0,0,0,0,0,0l2.5-0.5c0.3-0.1,0.5,0.1,0.6,0.4
		c0,0,0,0,0,0c0.1,0.3-0.1,0.5-0.4,0.6c0,0,0,0,0,0l-2.5,0.5L344.7,120.9z"/>
	<path class="st1" d="M353,111.7c-1.2,3.1-2.2,6.2-3,9.4c-0.8,3.5-0.8,11.4-0.8,11.4"/>
	<path class="st1" d="M349.2,133L349.2,133c-0.3,0-0.5-0.2-0.5-0.5c0-0.3,0.1-8,0.8-11.5c0.8-3.2,1.8-6.4,3-9.4
		c0.1-0.3,0.4-0.4,0.6-0.3s0.4,0.4,0.3,0.6c0,0,0,0,0,0.1c-1.2,3-2.2,6.1-3,9.3c-0.7,3.4-0.8,11.2-0.8,11.3
		C349.6,132.7,349.4,132.9,349.2,133z"/>
</g>
<g id="freepik--Character--inject-3">
	<path class="st1" d="M166.3,219.3c1.4-22.4-1.2-63.1,40.9-57.7c45.1,5.8,32.2,58.5,32.2,58.5L166.3,219.3z"/>
	
		<ellipse transform="matrix(0.1602 -0.9871 0.9871 0.1602 -20.9094 350.2839)" class="st5" cx="195.4" cy="187.4" rx="18.4" ry="18.4"/>
	<path class="st1" d="M197.8,169.1c-8.7-1.5-18,4.9-18.9,11.4l34.5,3.2C212.2,176.3,204.7,170.3,197.8,169.1z"/>
	<path class="st1" d="M209.5,187c-0.2,4.8-2.9,8.6-5.9,8.4s-5.2-4.2-5-9s2.9-8.6,5.9-8.4S209.7,182.2,209.5,187z"/>
	<path class="st2" d="M195.4,206.8c-10.7,0-19.4-8.7-19.4-19.4c0-10.7,8.7-19.4,19.4-19.4c10.7,0,19.4,8.7,19.4,19.4
		C214.8,198.1,206.1,206.8,195.4,206.8z M195.4,170.1c-9.6,0-17.4,7.8-17.4,17.4c0,9.6,7.8,17.4,17.4,17.4c9.6,0,17.4-7.8,17.4-17.4
		c0,0,0,0,0,0C212.8,177.8,205,170.1,195.4,170.1z"/>
	<path class="st6" d="M234.4,218.7h-0.1c-0.3-0.1-0.4-0.3-0.4-0.6c0,0,0,0,0,0c0-0.1,3.2-13.7-0.1-27.4c-0.1-0.3,0.1-0.6,0.4-0.6
		s0.6,0.1,0.6,0.4c3.4,14,0.1,27.7,0.1,27.9C234.8,218.6,234.6,218.7,234.4,218.7z"/>
	<path class="st6" d="M231.6,183.2c-0.2,0-0.4-0.1-0.5-0.3c-1.2-2.7-2.8-5.3-4.7-7.7c-0.2-0.2-0.1-0.5,0.1-0.7
		c0.2-0.2,0.5-0.1,0.7,0.1c0,0,0,0,0,0c2,2.4,3.6,5.1,4.9,7.9c0.1,0.2,0,0.5-0.2,0.7c0,0,0,0,0,0
		C231.7,183.2,231.7,183.2,231.6,183.2z"/>
	<path class="st1" d="M72.6,324.4h-0.4c-2.8-0.1-4.9-2.4-4.9-5.1c0.1-2.8,2.4-4.9,5.1-4.9h0.1c2.9,0,9.8-3.5,24.4-26.4
		c1.5-2.3,4.6-3,6.9-1.5c0.2,0.1,0.4,0.3,0.6,0.5c11.4,9.8,23.9,18.4,37.1,25.5c2.5,1.1,3.6,4.1,2.5,6.6c-1.1,2.5-4.1,3.6-6.6,2.5
		c-0.1-0.1-0.3-0.1-0.4-0.2c-12.3-6.6-24-14.3-34.8-23.1C90.1,316.4,81.1,324.4,72.6,324.4z"/>
	<path class="st1" d="M103.6,285.9h-0.4c-1.6-0.2-2.8-1.8-2.5-3.4c0.7-5-0.2-23.6-6.5-38.1c-0.6-1.3-0.1-2.9,1.1-3.7
		c13.7-9.3,42.9-10.5,44.1-10.5c1.7-0.1,3,1.2,3.1,2.9c0.1,1.7-1.2,3-2.9,3.1c-0.3,0-25.8,1-38.9,8.2c5.6,14.4,6.9,32.4,5.9,38.9
		C106.3,284.8,105,285.9,103.6,285.9z"/>
	<path class="st2" d="M108.6,282c-2-4.7-11-4.2-16.3-0.1c-2.8,2.1-6.6,8.6-7,11c-0.4,1.9,0.8,3.8,2.7,4.2c0.4,0.1,0.9,0.1,1.3,0
		c3.4-0.3,8.2-5.3,8.2-5.3c-3.1,3.1,0.9,5.3,7,0.8C107.8,290.1,110.8,287.3,108.6,282z"/>
	<path class="st1" d="M280.6,220.6c0,0-0.1,0-0.1,0c-0.3-0.1-0.4-0.3-0.3-0.6c0,0,0,0,0,0c1.3-4.6,2.8-7.5,4.7-9
		c-0.3-1.1-0.2-2.2,0.2-3.3c0.5-1.2,1.3-2.3,2.4-3c-0.6-0.6-0.8-1.5-0.6-2.4c0.4-1.3,1.1-2.4,2.1-3.2c-0.4-0.4-0.6-1-0.6-1.5
		c0-3,5.5-7.5,11.8-8.4c0.3,0,0.5,0.2,0.6,0.4c0,0.3-0.2,0.5-0.4,0.6c-5.9,0.8-10.9,5.1-10.9,7.4c0,0.3,0.1,0.7,0.4,0.9
		c2.7-1.8,6.1-2.5,9.3-1.9c3.1,0.6,4.3,1.2,4.2,2.2c-0.3,1.8-6.8,2.1-11.2,1.6c-0.8-0.1-1.5-0.3-2.2-0.6c-0.9,0.7-1.6,1.6-2,2.7
		c-0.2,0.6,0,1.2,0.5,1.6c1.9-1,4.5-1.4,7.9-0.6c4.5,1,4.7,1.5,4.8,1.9c0.1,0.2,0,0.5-0.2,0.7c-1,1-7.9,0.5-11.4-0.3
		c-0.4-0.1-0.8-0.2-1.2-0.5c-1,0.6-1.8,1.6-2.3,2.7c-0.3,0.7-0.4,1.5-0.2,2.3c0.2-0.1,0.4-0.2,0.5-0.3c2.1-1,4.6-0.8,7.7,0.5
		c2,0.9,3,1.6,3.1,2.4c0,0.4-0.2,0.8-0.6,1c-1.5,1-6.9,0.9-9.7-0.6c-0.6-0.3-1.2-0.9-1.5-1.5c-1.6,1.5-3,4.2-4.2,8.4
		C281,220.5,280.8,220.6,280.6,220.6z M286,211.3c0.3,0.5,0.7,0.9,1.2,1.2c2.3,1.2,6.7,1.5,8.4,0.8c0.3-0.1,0.4-0.2,0.4-0.2
		s0-0.6-2.5-1.6c-2.8-1.2-5-1.4-6.8-0.5C286.4,211,286.2,211.1,286,211.3L286,211.3z M289.4,204.7l0.2,0.1c3.3,0.8,6.6,1,9.9,0.8
		c-1.2-0.4-2.4-0.8-3.6-1C293.8,203.9,291.5,204,289.4,204.7z M290.6,199.1c0.5,0.2,0.9,0.3,1.4,0.3c5,0.6,9.4-0.1,10-0.7
		c-0.2-0.1-0.8-0.6-3.3-1C295.9,197.1,293,197.6,290.6,199.1z"/>
	<path class="st1" d="M150.4,322.7c0.7-0.2,0.4-0.9-0.3-0.9h-13.5c-25.8-2.7-43.8,0.9-32.4,1.8s-0.8,0.7-9.1,3.8s61.6,3.9,68,0
		C168.9,323.8,141.3,325.6,150.4,322.7z"/>
	<polygon class="st2" points="247.4,326.7 129.6,322.8 124.7,208.5 263.8,211.6 	"/>
	<path class="st1" d="M166.3,324.5c-0.3,0-0.5-0.2-0.5-0.5l-9.4-114.7c0-0.3,0.2-0.5,0.5-0.5c0.3,0,0.5,0.2,0.5,0.5l9.5,114.7
		C166.9,324.2,166.7,324.5,166.3,324.5C166.4,324.5,166.4,324.5,166.3,324.5L166.3,324.5z"/>
	<polygon class="st2" points="247.4,326.7 279,321.9 289,215.6 263.8,211.6 	"/>
	<polygon class="st7" points="247.4,326.7 279,321.9 289,215.6 263.8,211.6 	"/>
	<path class="st1" d="M139.6,300.8l-2.9-67.9c-0.3-6.8,5-12.5,11.7-12.8c0.3,0,0.5,0,0.8,0l88.1,2c6.8,0.2,12.1,5.8,12,12.5
		c0,0.5-0.1,1-0.1,1.5l-9.8,68.3c-0.9,6.2-6.3,10.7-12.5,10.5l-75.4-2.5C145.1,312.3,139.9,307.2,139.6,300.8z"/>
	<path class="st5" d="M149.1,240.9l13.6,0.4l-0.1,3.5l-8.5-0.3l-0.1,2.6l7.9,0.2l-0.1,3.4l-7.9-0.3l-0.1,3.2l8.8,0.3l-0.1,3.7
		l-13.9-0.4L149.1,240.9z"/>
	<path class="st5" d="M165.3,257.9l0.5-16.5l8.5,0.3c1.2,0,2.4,0.2,3.6,0.5c0.8,0.3,1.5,0.8,2,1.6c1.4,2.1,0.8,5-1.4,6.4
		c-0.1,0.1-0.2,0.1-0.3,0.2c-0.6,0.3-1.2,0.5-1.8,0.6c0.5,0.1,0.9,0.4,1.3,0.6c0.3,0.3,0.6,0.6,0.8,0.9c0.3,0.3,0.5,0.6,0.7,1
		l2.3,4.9l-5.7-0.2l-2.6-5.1c-0.2-0.5-0.5-0.9-0.9-1.3c-0.4-0.3-0.8-0.4-1.2-0.4h-0.4l-0.2,6.7L165.3,257.9z M170.7,248.3l2.1,0.1
		c0.5,0,0.9-0.1,1.4-0.2c0.3-0.1,0.6-0.2,0.9-0.5c0.2-0.3,0.3-0.6,0.4-0.9c0-0.5-0.1-0.9-0.5-1.2c-0.6-0.4-1.2-0.5-1.9-0.5l-2.2-0.1
		L170.7,248.3z"/>
	<path class="st5" d="M183.2,258.4l0.5-16.5l8.5,0.3c1.2,0,2.4,0.2,3.6,0.5c0.8,0.3,1.5,0.8,2,1.6c0.5,0.8,0.7,1.7,0.7,2.7
		c0,1.6-0.9,3.1-2.3,3.9c-0.6,0.3-1.2,0.5-1.8,0.6c0.5,0.1,0.9,0.4,1.3,0.6c0.3,0.3,0.6,0.6,0.8,0.9c0.3,0.3,0.5,0.6,0.7,1l2.3,4.8
		l-5.7-0.2l-2.6-5.1c-0.2-0.5-0.5-0.9-0.9-1.3c-0.4-0.3-0.8-0.4-1.2-0.4h-0.4l-0.2,6.7L183.2,258.4z M188.6,248.8l2.1,0.1
		c0.5,0,0.9-0.1,1.4-0.2c0.3,0,0.6-0.2,0.8-0.5c0.2-0.3,0.3-0.6,0.4-0.9c0-0.5-0.1-0.9-0.5-1.2c-0.6-0.4-1.2-0.5-1.9-0.5l-2.2-0.1
		L188.6,248.8z"/>
	<path class="st5" d="M200.2,250.8c-0.3-4.3,3-8,7.2-8.3c0.5,0,1,0,1.5,0c2.3-0.1,4.6,0.8,6.3,2.4c1.5,1.7,2.2,4,2,6.2
		c0,1.6-0.4,3.2-1.1,4.7c-0.7,1.2-1.7,2.2-2.9,2.8c-1.4,0.7-3,1-4.6,0.9c-1.6,0-3.1-0.3-4.6-1c-1.2-0.7-2.2-1.7-2.9-2.9
		C200.4,254.2,200.1,252.5,200.2,250.8z M205.3,251c-0.2,1.3,0.1,2.5,0.8,3.6c1.3,1.4,3.5,1.6,5,0.3c0,0,0.1-0.1,0.1-0.1
		c0.7-1.1,1.1-2.5,1-3.8c0.1-1.2-0.2-2.4-0.8-3.4c-0.6-0.7-1.5-1.1-2.4-1.1c-0.9-0.1-1.9,0.3-2.5,1
		C205.6,248.5,205.2,249.7,205.3,251L205.3,251z"/>
	<path class="st5" d="M219.8,259.6l0.5-16.5l8.5,0.3c1.2,0,2.4,0.2,3.6,0.5c0.8,0.3,1.5,0.8,2,1.6c0.5,0.8,0.7,1.7,0.7,2.7
		c0,1.6-0.9,3.1-2.3,3.9c-0.6,0.3-1.2,0.5-1.8,0.6c0.5,0.2,0.9,0.4,1.3,0.6c0.3,0.3,0.6,0.6,0.8,0.9c0.3,0.3,0.5,0.6,0.7,1l2.3,4.9
		l-5.7-0.2l-2.6-5.1c-0.2-0.5-0.5-0.9-0.9-1.3c-0.4-0.3-0.8-0.4-1.2-0.4h-0.4l-0.2,6.7L219.8,259.6z M225.2,250l2.1,0.1
		c0.5,0,0.9-0.1,1.4-0.2c0.3-0.1,0.6-0.2,0.8-0.5c0.2-0.3,0.4-0.6,0.4-1c0-0.5-0.1-0.9-0.5-1.2c-0.6-0.4-1.2-0.5-1.9-0.5l-2.2-0.1
		L225.2,250z"/>
	<path class="st5" d="M227.9,287.6c-0.4,0-0.7-0.1-1-0.4l-8.6-9.4l-9.2,8.4c-0.5,0.5-1.4,0.5-1.9-0.1l-8.6-9.4l-9.2,8.4
		c-0.5,0.5-1.4,0.5-1.9-0.1l-8.6-9.4l-9.2,8.4c-0.3,0.2-0.6,0.4-1,0.3c-0.3,0-0.7-0.2-0.9-0.4l-8.6-9.4l-9.2,8.4
		c-0.5,0.5-1.4,0.5-1.9-0.1c-0.5-0.5-0.5-1.4,0.1-1.8c0,0,0,0,0,0l10.2-9.3c0.5-0.5,1.4-0.5,1.9,0.1l8.6,9.4l9.2-8.4
		c0.3-0.2,0.6-0.4,0.9-0.3c0.3,0,0.7,0.2,0.9,0.4l8.6,9.4l9.2-8.4c0.5-0.5,1.3-0.5,1.8,0.1c0,0,0,0,0,0l8.6,9.4l9.2-8.4
		c0.5-0.5,1.4-0.5,1.9,0.1l9.6,10.4c0.5,0.5,0.4,1.4-0.1,1.9C228.5,287.5,228.2,287.6,227.9,287.6L227.9,287.6z"/>
	<polygon class="st2" points="69.6,329.1 63.4,326.1 57.8,298.9 60.8,295.6 	"/>
	<polygon class="st2" points="69.6,329.1 77.9,324.2 70.8,301.9 60.8,295.6 	"/>
	<polygon class="st7" points="69.6,329.1 77.9,324.2 70.8,301.9 60.8,295.6 	"/>
	<path class="st1" d="M205.9,334h-0.7c-2.8-0.1-4.9-2.4-4.9-5.1c0.1-2.8,2.4-4.9,5.1-4.9c7.7,0.2,24-4.5,33.3-13.5
		c0.6-0.6,1.2-1,2-1.2c15.8-4.7,21.7,4.8,21.9,5.2l-8.6,5.1c0,0.1,0.1,0.1,0.1,0.2c-0.1-0.1-2.3-3-9.5-1.2
		C233.1,329.2,215.1,334,205.9,334z"/>
	<polygon class="st2" points="205.3,340.7 187.1,339.5 185.6,306 210.1,306.9 	"/>
	<polygon class="st2" points="205.3,340.7 209.5,336.4 212.2,315.5 210.1,306.9 	"/>
	<polygon class="st7" points="205.3,340.7 209.5,336.4 212.2,315.5 210.1,306.9 	"/>
	<path class="st1" d="M310.8,328c-0.7,0-1.3-0.2-1.8-0.6c-10.4-7.9-24.5-21.9-29.8-35.5c-0.1-0.2-0.1-0.4-0.2-0.6
		c-2.6-15.6-5.1-48.5-5.2-49.9c-0.1-1.7,1.1-3.1,2.8-3.2s3.1,1.1,3.2,2.8c0,0.3,2.6,33.6,5.1,49.1c5.4,13.2,20,26.7,27.8,32.6
		c1.3,1,1.6,2.9,0.6,4.2C312.6,327.5,311.8,328,310.8,328L310.8,328z"/>
	<path class="st1" d="M324.7,329.5c-2.3,0-5-1-7.8-3.1c-1.3-1-1.6-2.8-0.7-4.2c1-1.3,2.8-1.6,4.2-0.7c2.5,1.8,3.8,2,4.3,2
		c1.7,0,3,1.3,3,3S326.3,329.5,324.7,329.5L324.7,329.5z"/>
	<path class="st2" d="M317.7,326.3c3.2-9.5,16.4-7.6,20.9-6.2c3.9,1.1,7.6,2.7,11.1,4.8c2.5,1.6,2.5,4.3-0.8,5.8
		c-4,1.9-14.2,0.2-14.2,0.2c5.2,2.3,0,6-9.2,2.4C322.5,332,316.6,329.8,317.7,326.3z"/>
	<path class="st1" d="M285.8,245.4c-1.2,8.1-7.9,14.1-13.4,13.3c-5.5-0.8-5.7-8-4.5-16.1s3.3-14,8.8-13.2
		C282.2,230.2,286.9,237.4,285.8,245.4z"/>
	<circle class="st1" cx="153.8" cy="212.3" r="0.8"/>
	<path class="st1" d="M162.1,218.2c0,0.5-0.4,0.8-0.8,0.8c-0.5,0-0.8-0.4-0.8-0.8c0-0.5,0.4-0.8,0.8-0.8
		C161.7,217.4,162.1,217.8,162.1,218.2L162.1,218.2z"/>
	<path class="st1" d="M163,315.1c0,0.5-0.4,0.8-0.8,0.8c-0.5,0-0.8-0.4-0.8-0.8c0-0.5,0.4-0.8,0.8-0.8
		C162.7,314.3,163,314.7,163,315.1L163,315.1z"/>
	<path class="st1" d="M170.5,321c0,0.5-0.4,0.8-0.8,0.8c-0.5,0-0.8-0.4-0.8-0.8c0-0.5,0.4-0.8,0.8-0.8
		C170.2,320.2,170.5,320.6,170.5,321L170.5,321z"/>
</g>
<g id="freepik--robot-parts--inject-3">
	<path class="st1" d="M26.4,330.9c-2.9-0.1-5.6-1.6-7.3-4c-0.2-0.2-0.1-0.5,0.1-0.7c0.2-0.2,0.5-0.1,0.7,0.1c0,0,0,0,0,0
		c1.9,2.7,6,4.1,7.8,3.3c0.2-0.1,0.3-0.2,0.5-0.3c-1.8-0.8-3.2-2.5-3.5-4.5c-0.2-1.3-0.4-3,0.6-3.2c1.4-0.3,3.3,3.1,4,5.8
		c0.1,0.4,0.2,0.9,0.1,1.3c0.6,0.2,1.2,0.2,1.8,0.1c0.5,0,1-0.3,1.4-0.7c-1.3-1-2.2-2.5-2.3-4.2c-0.4-2.7-0.1-3.2,0.2-3.5
		c0.2-0.2,0.5-0.2,0.7-0.1c1.1,0.5,2.4,4.3,2.6,6.5c0,0.2,0,0.5,0,0.7c0.4,0.2,0.9,0.3,1.3,0.3c0.8,0,1.7-0.2,2.4-0.6
		c-0.1-0.1-0.3-0.2-0.4-0.3c-1-0.9-1.5-2.3-1.3-4.3c0.1-1.6,0.5-2.4,1.1-2.7c0.4-0.2,0.9-0.1,1.2,0.2c1.4,1.5,2,3.5,1.7,5.6
		c-0.1,0.4-0.3,0.8-0.5,1.1c1.8,0.3,4.4-0.2,6.7-0.8c0.3-0.1,0.6,0.1,0.6,0.4c0.1,0.3-0.1,0.6-0.4,0.6c-2.7,0.7-5.6,1.2-7.7,0.6
		c-1,0.8-2.2,1.2-3.5,1.2c-0.6,0-1.1-0.1-1.6-0.3c-0.5,0.7-1.3,1.2-2.1,1.3c-0.8,0.1-1.5,0-2.2-0.2c-0.2,0.4-0.6,0.7-1,0.9
		C27.6,330.8,27,330.9,26.4,330.9z M25.5,322.6c-0.1,0.7-0.1,1.4,0.1,2c0.3,1.6,1.3,3,2.8,3.7c0-0.2-0.1-0.5-0.1-0.7
		C27.6,324.8,26.1,322.8,25.5,322.6z M31.1,321.7c0,0.7,0.1,1.4,0.2,2.1c0.1,1.2,0.6,2.4,1.5,3.2C32.6,325.1,32,323.3,31.1,321.7
		L31.1,321.7z M37.4,320.8L37.4,320.8c0,0-0.4,0.2-0.5,1.9s0.2,2.8,0.9,3.5c0.2,0.1,0.4,0.3,0.6,0.4c0.3-0.3,0.4-0.6,0.5-1
		c0.2-1.6-0.2-3.2-1.2-4.4C37.6,320.9,37.4,320.8,37.4,320.8L37.4,320.8z"/>
	<polygon class="st1" points="172.8,338.4 175.5,333.7 172.8,329 169.9,329 171.5,333.7 169.9,338.4 	"/>
	<path class="st1" d="M170.1,336.2c-1.4,0.1-2.5-0.9-2.6-2.3c-0.1-1.4,0.9-2.5,2.3-2.6c0.1,0,0.2,0,0.3,0l-4.6-0.9l-1.2,3.7l2.1,3.1
		L170.1,336.2z"/>
	<path class="st2" d="M170.4,329H165l-2.7,4.7l2.7,4.7h5.4l2.7-4.7L170.4,329z M167.7,336.2c-1.4,0-2.5-1.1-2.5-2.4s1.1-2.5,2.4-2.5
		c1.4,0,2.5,1.1,2.5,2.4c0,0,0,0,0,0C170.2,335.1,169.1,336.2,167.7,336.2L167.7,336.2z"/>
	<polygon class="st2" points="361.8,328.7 359.8,325.2 361.8,321.7 363.9,321.7 362.7,325.2 363.9,328.7 	"/>
	<path class="st2" d="M363.8,327c1,0.1,1.9-0.7,1.9-1.7c0.1-1-0.7-1.9-1.7-1.9c-0.1,0-0.2,0-0.3,0l3.4-0.7l0.9,2.8l-1.5,2.3
		L363.8,327z"/>
	<path class="st1" d="M363.5,321.7h4l2,3.5l-2,3.5h-4l-2-3.5L363.5,321.7z M365.5,327c1,0,1.8-0.8,1.8-1.8c0-1-0.8-1.8-1.8-1.8
		c-1,0-1.8,0.8-1.8,1.8c0,0,0,0,0,0C363.7,326.2,364.5,327,365.5,327C365.5,327,365.5,327,365.5,327L365.5,327z"/>
	<path class="st1" d="M286.9,333.3h4.5c1.2,0,2.1-1,2.1-2.1l0,0c0-1.2-1-2.1-2.1-2.1h-4.5c-1.2,0-2.1,1-2.1,2.1v0l0,0
		C284.8,332.4,285.7,333.3,286.9,333.3L286.9,333.3z"/>
	<path class="st2" d="M279.6,329.3c1.2-2.2,3.9-2.9,6.1-1.8s2.9,3.9,1.8,6.1c-1.1,2.1-3.7,2.9-5.8,1.9
		C279.4,334.3,278.5,331.5,279.6,329.3z"/>
	
		<rect x="278.6" y="330.5" transform="matrix(0.4264 -0.9045 0.9045 0.4264 -136.8968 446.5046)" class="st1" width="10.1" height="1.4"/>
</g>
</svg>
