<?xml version="1.0" encoding="utf-8"?>
<!-- Generator: Adobe Illustrator 25.2.0, SVG Export Plug-In . SVG Version: 6.00 Build 0)  -->
<svg version="1.1" xmlns="http://www.w3.org/2000/svg" xmlns:xlink="http://www.w3.org/1999/xlink" x="0px" y="0px"
	 viewBox="0 0 386 313.7" style="enable-background:new 0 0 386 313.7;" xml:space="preserve">
<style type="text/css">
	.st0{display:none;}
	.st1{display:inline;}
	.st2{fill:#EBEBEB;}
	.st3{fill:#E0E0E0;}
	.st4{fill:#F5F5F5;}
	.st5{fill:#FFFFFF;}
	.st6{opacity:0.6;}
	.st7{fill:#FAFAFA;}
	.st8{opacity:0.6;fill:#FAFAFA;}
	.st9{opacity:0.3;fill:#E0E0E0;}
	.st10{opacity:0.9;fill:#FFFFFF;}
	.st11{fill:#F0F0F0;}
	.st12{opacity:0.4;fill:#FFFFFF;}
	.st13{fill:#407BFF;}
	.st14{opacity:0.9;}
	.st15{fill:#3F3F3F;}
	.st16{opacity:0.2;fill:#FFFFFF;}
	.st17{opacity:0.2;}
	.st18{opacity:0.3;}
	.st19{fill:#84203D;}
	.st20{fill:#CE2C4A;}
	.st21{fill-rule:evenodd;clip-rule:evenodd;fill:#FFFFFF;}
</style>
<g id="Background_Complete" class="st0">
	<g class="st1">
		<g>
			
				<rect x="24.6" y="-24.6" transform="matrix(-1.836970e-16 1 -1 -1.836970e-16 238.8714 -24.5714)" class="st2" width="214.3" height="263.4"/>
			
				<rect x="157.1" y="106.4" transform="matrix(-1.836970e-16 1 -1 -1.836970e-16 371.3865 -157.0867)" class="st3" width="214.3" height="1.6"/>
			
				<rect x="13" y="13" transform="matrix(-1 -1.224647e-16 1.224647e-16 -1 263.4433 214.2998)" class="st4" width="237.5" height="188.3"/>
			<polygon class="st5" points="121.1,201.3 153,201.3 99.9,13 68,13 			"/>
			<polygon class="st5" points="95.6,201.3 114,201.3 60.9,13 42.4,13 			"/>
			<polygon class="st5" points="197.7,201.3 205.4,201.3 152.3,13 144.6,13 			"/>
		</g>
		<g>
			<g>
				<g>
					<path class="st3" d="M371.8,305.5h-278c-4,0-7.2-3.3-7.1-7.4l6.6-198.8c0.1-4,3.6-7.4,7.6-7.4h278c4,0,7.2,3.3,7.1,7.4
						l-6.6,198.8C379.2,302.2,375.8,305.5,371.8,305.5z"/>
				</g>
				<g class="st6">
					<g>
						<path class="st7" d="M369.5,305.5h-278c-4,0-7.2-3.3-7.1-7.4l6.6-198.8c0.1-4,3.6-7.4,7.6-7.4h278c4,0,7.2,3.3,7.1,7.4
							l-6.6,198.8C377,302.2,373.5,305.5,369.5,305.5z"/>
					</g>
				</g>
				<g>
					<g>
						<path class="st3" d="M365.9,305.1H30.1c-3.5,0-6.5,2-7.9,5c-0.8,1.7,0.4,3.6,2.3,3.6h347c1.9,0,3.1-1.9,2.3-3.6
							C372.5,307.1,369.4,305.1,365.9,305.1z"/>
					</g>
					<path class="st8" d="M30.1,305.1h268c3.5,0,6.5,2,7.9,5c0.8,1.7-0.4,3.6-2.3,3.6H24.5c-1.9,0-3.1-1.9-2.3-3.6
						C23.6,307.1,26.6,305.1,30.1,305.1z"/>
					<path class="st9" d="M190.3,310.6h-69.7c-1.7,0-3.1,1.4-3.1,3.1h76C193.4,312,192,310.6,190.3,310.6z"/>
				</g>
				<path class="st10" d="M91,290.9l6.1-184.4c0.1-1.6,1.4-2.9,3-2.9h274.2c1.6,0,2.8,1.3,2.8,2.9l-6.1,184.4
					c-0.1,1.6-1.4,2.9-3,2.9H93.8C92.2,293.8,90.9,292.5,91,290.9z"/>
				<path class="st11" d="M98.3,283.1l5.6-168.9c0.1-1.9,1.7-3.5,3.6-3.5h258.7c2,0,3.7,1.7,3.6,3.7l-5.6,168.9
					c-0.1,1.9-1.7,3.5-3.6,3.5H101.8C99.8,286.8,98.2,285.1,98.3,283.1z"/>
				<polygon class="st5" points="309.3,293.8 354.8,293.8 302.4,103.7 256.9,103.7 				"/>
				<polygon class="st5" points="280.4,293.8 296.7,293.8 244.3,103.7 228,103.7 				"/>
				<polygon class="st5" points="187.3,293.8 203.7,293.8 151.3,103.7 134.9,103.7 				"/>
				<path class="st12" d="M239.5,212.5c0,1.2-1,2.2-2.2,2.2c-1.2,0-2.1-1-2.1-2.2c0-1.2,1-2.2,2.2-2.2
					C238.6,210.3,239.5,211.3,239.5,212.5z"/>
			</g>
		</g>
	</g>
</g>
<g id="Background_Simple" class="st0">
	<g class="st1">
		<g>
			<path class="st13" d="M120.3,286.8c55,1.2,105.6-37.2,142.6-76.5C418.7,72.8,240.7-48.7,118,5.5
				C-4.7,59.6-46.3,282.9,120.3,286.8z"/>
		</g>
		<g class="st14">
			<path class="st5" d="M120.3,286.8c55,1.2,105.6-37.2,142.6-76.5C418.7,72.8,240.7-48.7,118,5.5C-4.7,59.6-46.3,282.9,120.3,286.8
				z"/>
		</g>
	</g>
</g>
<g id="Shadow_1_" class="st0">
</g>
<g id="Cat">
	<g>
		<path class="st15" d="M103.9,219.1c-43.8-43.8-43.8-114.7,0-158.5c43.8-43.8,114.7-43.8,158.5,0c43.8,43.8,43.8,114.7,0,158.5
			C218.6,262.8,147.7,262.8,103.9,219.1z"/>
		<g>
			<g>
				<path class="st5" d="M220,117.6c-9.2-0.4-14.2-0.2-13.4,4.9c0.7,4.2,10.2,9,13.5,7.2C225.1,126.9,227.8,117.9,220,117.6z"/>
				<g>
					<path class="st16" d="M138,93.3"/>
				</g>
			</g>
			<g>
				<path class="st5" d="M242.4,99.4l-84.6,1.8c-0.5,0-0.9-0.4-0.9-0.8l0,0c0-0.5,0.4-0.9,0.8-0.9l84.6-1.8c0.5,0,0.9,0.4,0.9,0.8v0
					C243.2,99,242.9,99.3,242.4,99.4z"/>
				<polygon class="st5" points="168.6,119.2 146.7,119.7 145.9,99.7 167.9,99.2 				"/>
				<g>
					<path class="st5" d="M126.6,120.1l20.1-0.4l-0.8-20l-20,0.4c-1.7,0-3.1,1.5-3,3.2l0.5,13.9
						C123.5,118.8,124.9,120.2,126.6,120.1z"/>
				</g>
			</g>
		</g>
		<g>
			<path class="st13" d="M345.6,281.9c-0.5-2.2-1.4-4-2.6-5.5c-2.6-2.8-5.3-5.4-8.1-8c-2.7-2.6-5.5-5.2-8.3-7.7
				c-2.8-2.6-5.7-5-8.5-7.5c-5.8-4.9-11.7-9.7-17.8-14.3c-2.8-2.1-5.6-4.1-8.5-6.1c1.3-3.7,0.6-7.9-2.4-10.9l-4.2-4.2
				c-0.8-0.8-1.6-1.4-2.5-1.8c37.6-49.1,34-119.6-11-164.6c-48.9-48.9-128.2-48.9-177.1,0c-48.9,48.9-48.9,128.2,0,177.1
				c44.9,44.9,115.5,48.6,164.6,11c0.5,0.9,1.1,1.7,1.8,2.5l4.2,4.2c2.9,2.9,7.2,3.7,10.9,2.4c2,2.9,4,5.7,6.1,8.5
				c4.6,6.1,9.4,12.1,14.3,17.8c2.5,2.9,5,5.7,7.5,8.5c2.5,2.8,5.1,5.6,7.7,8.3c2.6,2.7,5.2,5.5,8,8.1c1.5,1.2,3.3,2.1,5.5,2.6
				c2.2,0.4,4.8,0.5,8.3-0.3c5.6-1.4,10.2-5.7,11.7-11.7C346.1,286.7,346,284.1,345.6,281.9z M100.6,222.3
				c-45.6-45.6-45.6-119.5,0-165c45.6-45.6,119.5-45.6,165.1,0c45.6,45.6,45.6,119.5,0,165C220.1,267.9,146.2,267.9,100.6,222.3z"/>
			<g>
				<path class="st17" d="M345.6,281.9c-0.5-2.2-1.4-4-2.6-5.5c-2.6-2.8-5.3-5.4-8.1-8c-2.7-2.6-5.5-5.2-8.3-7.7
					c-2.8-2.6-5.7-5-8.5-7.5c-5.8-4.9-11.7-9.7-17.8-14.3c-2.8-2.1-5.6-4.1-8.5-6.1c1.3-3.7,0.6-7.9-2.4-10.9l-4.2-4.2
					c-0.8-0.8-1.6-1.4-2.5-1.8c37.6-49.1,34-119.6-11-164.6c-48.9-48.9-128.2-48.9-177.1,0c-48.9,48.9-48.9,128.2,0,177.1
					c44.9,44.9,115.5,48.6,164.6,11c0.5,0.9,1.1,1.7,1.8,2.5l4.2,4.2c2.9,2.9,7.2,3.7,10.9,2.4c2,2.9,4,5.7,6.1,8.5
					c4.6,6.1,9.4,12.1,14.3,17.8c2.5,2.9,5,5.7,7.5,8.5c2.5,2.8,5.1,5.6,7.7,8.3c2.6,2.7,5.2,5.5,8,8.1c1.5,1.2,3.3,2.1,5.5,2.6
					c2.2,0.4,4.8,0.5,8.3-0.3c5.6-1.4,10.2-5.7,11.7-11.7C346.1,286.7,346,284.1,345.6,281.9z M100.6,222.3
					c-45.6-45.6-45.6-119.5,0-165c45.6-45.6,119.5-45.6,165.1,0c45.6,45.6,45.6,119.5,0,165C220.1,267.9,146.2,267.9,100.6,222.3z"
					/>
				<path class="st18" d="M276.1,248.4l15.6-15.6C291.7,232.8,287.6,244.7,276.1,248.4z"/>
			</g>
			<g>
				<path class="st13" d="M300.2,88.3c-1.5-3.4-3.2-6.8-4.9-10l0.9-0.5c1.8,3.3,3.5,6.7,5,10.1L300.2,88.3z M290.9,70.9
					c-5-7.8-10.8-15-17.3-21.6l0.8-0.8c6.6,6.6,12.5,13.9,17.5,21.7L290.9,70.9z"/>
				<path class="st17" d="M300.2,88.3c-1.5-3.4-3.2-6.8-4.9-10l0.9-0.5c1.8,3.3,3.5,6.7,5,10.1L300.2,88.3z M290.9,70.9
					c-5-7.8-10.8-15-17.3-21.6l0.8-0.8c6.6,6.6,12.5,13.9,17.5,21.7L290.9,70.9z"/>
			</g>
		</g>
	</g>
	<g>
		<circle class="st19" cx="183" cy="140.2" r="82.5"/>
		<circle id="Ellipse_1_Kopie_2" class="st20" cx="181.9" cy="140.2" r="73.8"/>
		<path id="Rechteck_1" class="st21" d="M203.4,106.6l13.2,13.2l-53.9,53.9l-13.2-13.2L203.4,106.6z"/>
		<path id="Rechteck_1_Kopie" class="st21" d="M216.5,160.7l-13.2,13.2l-54-54l13.2-13.2L216.5,160.7z"/>
	</g>
</g>
</svg>
